<?xml version="1.0" encoding="UTF-8" standalone="no"?>
<svg
   xmlns:dc="http://purl.org/dc/elements/1.1/"
   xmlns:cc="http://creativecommons.org/ns#"
   xmlns:rdf="http://www.w3.org/1999/02/22-rdf-syntax-ns#"
   xmlns:svg="http://www.w3.org/2000/svg"
   xmlns="http://www.w3.org/2000/svg"
   xmlns:sodipodi="http://sodipodi.sourceforge.net/DTD/sodipodi-0.dtd"
   xmlns:inkscape="http://www.inkscape.org/namespaces/inkscape"
   enable-background="new 0 0 24 24"
   height="24px"
   viewBox="0 0 24 24"
   width="24px"
   fill="#000000"
   id="svg2"
   version="1.1"
   inkscape:version="0.91 r13725"
   sodipodi:docname="icon_learn_w.svg">
  <metadata
     id="metadata16">
    <rdf:RDF>
      <cc:Work
         rdf:about="">
        <dc:format>image/svg+xml</dc:format>
        <dc:type
           rdf:resource="http://purl.org/dc/dcmitype/StillImage" />
      </cc:Work>
    </rdf:RDF>
  </metadata>
  <defs
     id="defs14" />
  <sodipodi:namedview
     pagecolor="#ffffff"
     bordercolor="#666666"
     borderopacity="1"
     objecttolerance="10"
     gridtolerance="10"
     guidetolerance="10"
     inkscape:pageopacity="0"
     inkscape:pageshadow="2"
     inkscape:window-width="1920"
     inkscape:window-height="1017"
     id="namedview12"
     showgrid="false"
     inkscape:zoom="9.8333333"
     inkscape:cx="12"
     inkscape:cy="12"
     inkscape:window-x="-8"
     inkscape:window-y="-8"
     inkscape:window-maximized="1"
     inkscape:current-layer="svg2" />
  <g
     id="g4">
    <rect
       fill="none"
       height="24"
       width="24"
       x="0"
       id="rect6" />
  </g>
  <g
     id="g8"
     style="fill:#ffffff;fill-opacity:1">
    <path
       d="M22.47,5.2C22,4.96,21.51,4.76,21,4.59v12.03C19.86,16.21,18.69,16,17.5,16c-1.9,0-3.78,0.54-5.5,1.58V5.48 C10.38,4.55,8.51,4,6.5,4C4.71,4,3.02,4.44,1.53,5.2C1.2,5.36,1,5.71,1,6.08v12.08c0,0.58,0.47,0.99,1,0.99 c0.16,0,0.32-0.04,0.48-0.12C3.69,18.4,5.05,18,6.5,18c2.07,0,3.98,0.82,5.5,2c1.52-1.18,3.43-2,5.5-2c1.45,0,2.81,0.4,4.02,1.04 c0.16,0.08,0.32,0.12,0.48,0.12c0.52,0,1-0.41,1-0.99V6.08C23,5.71,22.8,5.36,22.47,5.2z M10,16.62C8.86,16.21,7.69,16,6.5,16 c-1.19,0-2.36,0.21-3.5,0.62V6.71C4.11,6.24,5.28,6,6.5,6C7.7,6,8.89,6.25,10,6.72V16.62z M19,0.5l-5,5V15l5-4.5V0.5z"
       id="path10"
       style="fill:#ffffff;fill-opacity:1" />
  </g>
</svg>
