<?xml version="1.0" encoding="UTF-8" standalone="no"?>
<svg
   xmlns:dc="http://purl.org/dc/elements/1.1/"
   xmlns:cc="http://creativecommons.org/ns#"
   xmlns:rdf="http://www.w3.org/1999/02/22-rdf-syntax-ns#"
   xmlns:svg="http://www.w3.org/2000/svg"
   xmlns="http://www.w3.org/2000/svg"
   xmlns:sodipodi="http://sodipodi.sourceforge.net/DTD/sodipodi-0.dtd"
   xmlns:inkscape="http://www.inkscape.org/namespaces/inkscape"
   viewBox="0 0 24 24"
   fill="black"
   width="24px"
   height="24px"
   id="svg2"
   version="1.1"
   inkscape:version="0.91 r13725"
   sodipodi:docname="icon_market.svg">
  <metadata
     id="metadata14">
    <rdf:RDF>
      <cc:Work
         rdf:about="">
        <dc:format>image/svg+xml</dc:format>
        <dc:type
           rdf:resource="http://purl.org/dc/dcmitype/StillImage" />
      </cc:Work>
    </rdf:RDF>
  </metadata>
  <defs
     id="defs12" />
  <sodipodi:namedview
     pagecolor="#ffffff"
     bordercolor="#666666"
     borderopacity="1"
     objecttolerance="10"
     gridtolerance="10"
     guidetolerance="10"
     inkscape:pageopacity="0"
     inkscape:pageshadow="2"
     inkscape:window-width="1920"
     inkscape:window-height="1017"
     id="namedview10"
     showgrid="false"
     inkscape:zoom="19.666667"
     inkscape:cx="9.6392449"
     inkscape:cy="5.7176478"
     inkscape:window-x="-8"
     inkscape:window-y="-8"
     inkscape:window-maximized="1"
     inkscape:current-layer="svg2" />
  <path
     d="M0 0h24v24H0V0z"
     fill="none"
     id="path4" />
  <path
     style="fill:#000000"
     d="M 11.553578,22.590787 C 10.989009,22.549697 10.487773,22.494017 10.161099,22.436101 6.0135657,21.700736 2.7096817,18.60546 1.7016097,14.510746 1.3215377,12.966918 1.3001297,11.295723 1.6404797,9.7389545 2.0917877,7.6746874 3.1465097,5.78933 4.6565487,4.3476091 6.3397477,2.7405635 8.3978117,1.7653456 10.738463,1.4656839 c 0.537432,-0.068807 1.878256,-0.078986 2.377404,-0.018054 1.515789,0.1850438 2.990537,0.6591379 4.117704,1.3237402 0.09492,0.055972 0.1809,0.093457 0.191054,0.083304 0.02931,-0.02931 0.853736,0.5276799 1.233433,0.8333325 2.222677,1.789229 3.61974,4.3630479 3.920443,7.2226664 0.05068,0.481905 0.05029,1.664789 -7.04e-4,2.122683 -0.207534,1.864012 -0.858884,3.591063 -1.913222,5.072901 -1.645785,2.313085 -4.072348,3.847365 -6.852483,4.33272 -0.64907,0.113315 -1.760733,0.188036 -2.258534,0.151808 z m 4.376612,-3.871333 c 0.376124,-0.272335 0.705997,-0.50771 0.733052,-0.523054 0.03816,-0.02164 -0.09345,-0.216445 -0.586793,-0.868578 l -0.635981,-0.84068 0.266755,-0.274977 c 0.754527,-0.777782 1.215017,-1.693638 1.418991,-2.822195 0.08454,-0.467714 0.08622,-1.562616 0.0032,-2.020794 C 16.74204,9.2338847 15.335322,7.6503435 13.387622,7.1570894 12.824856,7.0145707 12.426156,6.975298 11.77791,6.998534 10.936592,7.028689 10.365125,7.1647243 9.6856657,7.4965801 c -1.545449,0.754815 -2.554231,2.1599749 -2.841141,3.9575029 -0.0247,0.154799 -0.043,0.556656 -0.04251,0.93398 7e-4,0.539093 0.015,0.738081 0.07688,1.069832 0.32121,1.722123 1.324744,3.06074 2.838561,3.78636 1.1436853,0.548205 2.5666143,0.650694 3.8378903,0.276433 l 0.30776,-0.0906 0.674752,0.892264 c 0.371114,0.490744 0.682349,0.892262 0.691633,0.892262 0.0093,0 0.32462,-0.222819 0.700749,-0.495155 z M 11.672448,15.84571 c -1.258953,-0.0919 -2.2954803,-0.939335 -2.6981713,-2.205949 -0.151669,-0.477054 -0.202912,-0.904007 -0.17816,-1.484389 0.0228,-0.534628 0.0854,-0.860706 0.239496,-1.247452 0.328794,-0.825222 0.84063,-1.38811 1.5864183,-1.7446488 0.485924,-0.232306 0.742552,-0.2849873 1.390046,-0.285356 0.514842,-2.907e-4 0.585232,0.00724 0.866054,0.092963 0.349958,0.1067992 0.765396,0.3057771 1.003785,0.4807705 0.240599,0.1766158 0.626656,0.6038263 0.782092,0.8654643 0.61409,1.033665 0.729542,2.270339 0.319321,3.420426 -0.06153,0.172484 -0.175876,0.424658 -0.254115,0.560387 -0.1451,0.251716 -0.404501,0.598884 -0.449648,0.601786 -0.01375,9.04e-4 -0.34845,-0.430147 -0.743775,-0.957847 -0.395321,-0.527698 -0.723981,-0.965679 -0.730353,-0.973291 -0.01751,-0.0209 -1.539945,0.995222 -1.531174,1.021952 0.0042,0.01275 0.310171,0.423414 0.679967,0.912579 0.369797,0.489165 0.66459,0.897158 0.655097,0.906652 -0.03589,0.03588 -0.627058,0.05856 -0.93688,0.03595 z"
     id="path4147"
     inkscape:connector-curvature="0" />
</svg>
