<?xml version="1.0" encoding="UTF-8" standalone="no"?>
<svg
   xmlns:dc="http://purl.org/dc/elements/1.1/"
   xmlns:cc="http://creativecommons.org/ns#"
   xmlns:rdf="http://www.w3.org/1999/02/22-rdf-syntax-ns#"
   xmlns:svg="http://www.w3.org/2000/svg"
   xmlns="http://www.w3.org/2000/svg"
   xmlns:sodipodi="http://sodipodi.sourceforge.net/DTD/sodipodi-0.dtd"
   xmlns:inkscape="http://www.inkscape.org/namespaces/inkscape"
   height="24px"
   viewBox="0 0 24 24"
   width="24px"
   fill="#000000"
   id="svg2"
   version="1.1"
   inkscape:version="0.91 r13725"
   sodipodi:docname="icon_pixelcons.svg">
  <metadata
     id="metadata12">
    <rdf:RDF>
      <cc:Work
         rdf:about="">
        <dc:format>image/svg+xml</dc:format>
        <dc:type
           rdf:resource="http://purl.org/dc/dcmitype/StillImage" />
        <dc:title></dc:title>
      </cc:Work>
    </rdf:RDF>
  </metadata>
  <defs
     id="defs10" />
  <sodipodi:namedview
     pagecolor="#ffffff"
     bordercolor="#666666"
     borderopacity="1"
     objecttolerance="10"
     gridtolerance="10"
     guidetolerance="10"
     inkscape:pageopacity="0"
     inkscape:pageshadow="2"
     inkscape:window-width="1920"
     inkscape:window-height="1017"
     id="namedview8"
     showgrid="false"
     inkscape:zoom="27.812867"
     inkscape:cx="20.418534"
     inkscape:cy="11.31008"
     inkscape:window-x="-8"
     inkscape:window-y="-8"
     inkscape:window-maximized="1"
     inkscape:current-layer="svg2" />
  <path
     d="M0 0h24v24H0V0z"
     fill="none"
     id="path4" />
  <path
     style="fill:#000000"
     d="M 3.2513993,19.630081 C 2.6741475,19.507489 2.1992353,19.245571 1.7627376,18.809074 1.2926065,18.338943 1.049027,17.878944 0.88965967,17.160271 0.79760403,16.745136 0.80584798,15.523937 0.90370149,15.081469 1.0604923,14.372452 1.3089643,13.913385 1.8013493,13.423004 2.1073668,13.118234 2.2026822,13.049176 2.5491349,12.88122 3.098049,12.615113 3.4082887,12.557717 4.179005,12.579689 c 0.5164243,0.01472 0.6381744,0.03063 0.8880536,0.116026 0.4140214,0.141491 0.7387252,0.343928 1.0488633,0.653914 0.2946031,0.294461 0.4264936,0.495878 0.5936093,0.90653 0.1258451,0.309235 0.1384921,0.488701 0.040683,0.57722 C 6.6409718,14.93224 5.3707385,15.132486 5.2671918,15.06717 5.2346446,15.046645 5.1763685,14.946468 5.137687,14.844563 4.9776208,14.422882 4.7030542,14.183958 4.2500749,14.072174 c -0.2103083,-0.0519 -0.2913786,-0.05515 -0.4735971,-0.019 -0.312924,0.06208 -0.670194,0.248247 -0.8262224,0.430532 -0.3806547,0.444707 -0.5346849,1.417715 -0.3694627,2.333906 0.1256926,0.697001 0.3409631,1.034659 0.7993208,1.253738 0.2119348,0.101299 0.2993112,0.12125 0.5403778,0.123387 0.2507243,0.0022 0.3200975,-0.01347 0.5415121,-0.122468 0.1532804,-0.07546 0.2981929,-0.181203 0.3655678,-0.266755 0.1475303,-0.187333 0.2996893,-0.493269 0.3326112,-0.668762 0.032953,-0.175658 0.1514854,-0.331389 0.2522269,-0.331389 0.1547354,0 1.2747095,0.358456 1.3617587,0.43584 0.1091031,0.09699 0.097075,0.214093 -0.064948,0.632409 -0.3275345,0.845644 -0.9223574,1.423637 -1.7378071,1.688644 -0.1866597,0.06066 -0.3627659,0.07785 -0.8997414,0.08783 -0.3672103,0.0068 -0.7363298,-0.0022 -0.8202657,-0.02 z m 6.1424341,0.01186 C 9.1564042,19.592286 8.8660708,19.488189 8.6307987,19.36835 8.263903,19.181469 7.7905092,18.707229 7.6327876,18.368554 7.4169548,17.905096 7.3748709,17.685647 7.3732602,17.015195 c -0.00127,-0.543336 0.00845,-0.639781 0.088718,-0.877491 0.1442072,-0.42704 0.3363725,-0.738181 0.6505292,-1.053306 0.4845572,-0.486047 1.0881578,-0.720749 1.8536037,-0.720749 0.8648339,0 1.5333309,0.304417 2.0535969,0.935159 0.410326,0.49746 0.558133,0.951384 0.559143,1.717153 0.0013,0.854695 -0.200085,1.364467 -0.7613,1.928772 -0.353632,0.355582 -0.688371,0.553209 -1.125034,0.664207 -0.212374,0.05399 -1.091491,0.07632 -1.2986827,0.03299 z M 10.394357,18.25009 c 0.203985,-0.125693 0.311639,-0.250016 0.425112,-0.490936 0.09092,-0.193048 0.0989,-0.251038 0.09963,-0.724884 6.36e-4,-0.475624 -0.0068,-0.53111 -0.09802,-0.724883 -0.175782,-0.373258 -0.404472,-0.561821 -0.762943,-0.629071 -0.1586179,-0.02976 -0.4582564,0.06254 -0.6348422,0.195541 -0.4759638,0.35849 -0.5803619,1.451863 -0.1979725,2.073327 0.1078989,0.175357 0.324977,0.342777 0.5118719,0.394776 0.1626934,0.04527 0.5124348,-0.0047 0.6571588,-0.09387 z m 9.758267,1.39394 c -0.623346,-0.145919 -0.903459,-0.288422 -1.246531,-0.634151 -0.262835,-0.264869 -0.472386,-0.620511 -0.512968,-0.870587 -0.03048,-0.187805 0.0662,-0.263326 0.392571,-0.306678 0.143291,-0.01904 0.372122,-0.05158 0.508514,-0.07234 0.508964,-0.07744 0.724884,-0.03029 0.724884,0.158307 0,0.127453 0.22197,0.365734 0.407301,0.437229 0.402927,0.155439 1.043987,0.03947 1.10402,-0.199722 0.04036,-0.160814 -0.06276,-0.214539 -0.715498,-0.372754 -1.155185,-0.280004 -1.504259,-0.424523 -1.849581,-0.765741 -0.311494,-0.307791 -0.396021,-0.530529 -0.395979,-1.043461 2.7e-5,-0.328932 0.01235,-0.396595 0.109749,-0.602469 0.317349,-0.670812 0.998838,-1.008011 2.037212,-1.008011 0.987384,0 1.553009,0.22198 1.954165,0.766914 0.171609,0.233113 0.324446,0.579632 0.324446,0.735597 0,0.159112 -0.110746,0.209548 -0.612924,0.279145 -0.26092,0.03616 -0.560242,0.06641 -0.66516,0.06722 -0.189739,0.0015 -0.191209,5.4e-4 -0.275207,-0.17518 -0.165248,-0.345677 -0.422107,-0.453092 -0.948633,-0.396706 -0.426302,0.04566 -0.525144,0.233689 -0.185552,0.352995 0.08271,0.02906 0.425078,0.121784 0.760813,0.206056 1.112252,0.279184 1.435477,0.419784 1.752683,0.762405 0.278695,0.301024 0.337119,0.48652 0.320402,1.017289 -0.01139,0.361679 -0.02577,0.434685 -0.123651,0.627858 -0.133411,0.263293 -0.581728,0.711934 -0.825212,0.825809 -0.385316,0.180208 -0.525323,0.204343 -1.257754,0.216816 -0.388193,0.0066 -0.740142,0.004 -0.78211,-0.0058 z m -6.878758,-0.137527 c -0.03466,-0.03464 -0.04578,-0.636244 -0.04578,-2.47395 0,-2.303917 0.0036,-2.431399 0.06977,-2.491309 0.05899,-0.05339 0.167094,-0.06314 0.699895,-0.06314 0.703179,0 0.756404,0.01833 0.756404,0.260465 l 0,0.120925 0.181222,-0.128511 c 0.09967,-0.07068 0.241307,-0.156361 0.31475,-0.1904 0.520424,-0.241203 1.310637,-0.232326 1.805801,0.02029 0.206246,0.105219 0.500766,0.387861 0.612525,0.587818 0.202433,0.362193 0.214145,0.497894 0.214145,2.48128 0,1.373051 -0.01145,1.842199 -0.04578,1.876535 -0.06657,0.06657 -1.455439,0.06447 -1.510839,-0.0023 -0.02596,-0.03127 -0.04425,-0.621322 -0.05236,-1.688215 -0.01207,-1.587015 -0.01515,-1.645928 -0.09497,-1.818657 -0.152788,-0.330608 -0.514795,-0.410137 -0.893442,-0.196279 -0.242718,0.137087 -0.359007,0.326917 -0.416919,0.68058 -0.02055,0.125585 -0.03749,0.847252 -0.03761,1.603705 -1.63e-4,1.01861 -0.0121,1.387246 -0.04601,1.421153 -0.06454,0.06454 -1.446271,0.06454 -1.510808,0 z m 3.73124,-8.32954 c -0.558257,-0.151635 -1.047358,-0.512907 -1.326985,-0.980174 -0.535962,-0.8956065 -0.509149,-2.4009129 0.05812,-3.2632407 0.181911,-0.276527 0.572208,-0.6239246 0.860323,-0.7657638 0.638934,-0.3145461 1.535669,-0.3155101 2.191825,-0.00235 0.376345,0.1796124 0.775323,0.5787057 0.964497,0.9647742 0.220974,0.4509698 0.340157,0.9990221 0.341755,1.571537 0.0012,0.425603 0.119347,0.3969673 -1.638005,0.3969673 l -1.499221,0 0.02481,0.123993 c 0.09262,0.4631601 0.489272,0.7627744 0.923602,0.6976428 0.217785,-0.032659 0.350356,-0.1455989 0.458835,-0.3908894 0.04969,-0.1123516 0.119425,-0.2154364 0.154973,-0.2290769 0.12273,-0.047096 1.316279,0.1069681 1.406082,0.1814979 0.08382,0.069562 0.06643,0.3221856 -0.03606,0.5242046 -0.256653,0.505836 -0.64825,0.879882 -1.137786,1.086793 -0.266833,0.112781 -0.302977,0.117931 -0.907408,0.129272 -0.470122,0.0088 -0.682628,-0.0026 -0.839337,-0.04518 z m 1.432371,-3.3277236 c -0.103713,-0.573179 -0.789212,-0.7848418 -1.231685,-0.3803085 -0.06778,0.06197 -0.238837,0.4241778 -0.238837,0.5057329 0,0.00971 0.33669,0.017644 0.748205,0.017644 l 0.748203,0 -0.02589,-0.143069 z M 1.9809498,11.074969 c -0.034911,-0.03491 -0.045781,-0.839996 -0.045781,-3.3908333 0,-2.8605936 0.00794,-3.3516363 0.054788,-3.3905202 0.04129,-0.03427 0.5040726,-0.041718 1.878971,-0.03024 1.9840642,0.016561 2.005848,0.018753 2.4179283,0.2430341 0.2784392,0.1515451 0.652305,0.5422867 0.7920837,0.8278342 C 7.3871844,5.9639524 7.3870446,6.8628791 7.0786221,7.4951445 6.9195916,7.821135 6.49928,8.2444518 6.1883383,8.3917985 5.7638873,8.5929329 5.6471631,8.6104317 4.5962793,8.630472 l -0.9824065,0.018734 0,1.1899909 c 0,0.8746791 -0.012135,1.2021221 -0.045781,1.2357731 -0.064655,0.06466 -1.5224571,0.06466 -1.5871126,0 z M 4.6944062,7.1543533 C 5.2346157,7.0975185 5.485159,6.9308401 5.5650856,6.5751157 5.6376325,6.2522348 5.4382304,5.912782 5.1101526,5.8006622 4.986973,5.7585641 4.7221561,5.7315497 4.271963,5.7151542 l -0.6581187,-0.023966 0,0.7499671 0,0.7499672 0.3719787,-6.672e-4 c 0.20459,-3.814e-4 0.5234515,-0.016615 0.7085832,-0.036091 z M 8.0606855,11.035959 C 8.0084803,10.96142 8.0012937,10.664516 8.0012937,8.5818219 l 0,-2.3693444 0.088301,-0.082954 c 0.083729,-0.078658 0.122935,-0.082953 0.7571224,-0.082953 0.5994898,0 0.675366,0.00723 0.7319617,0.06977 0.057359,0.063379 0.06314,0.2915801 0.06314,2.4913085 0,1.832549 -0.011119,2.432674 -0.045781,2.467321 -0.032353,0.03235 -0.2555595,0.04578 -0.7608711,0.04578 -0.6957042,0 -0.7167001,-0.0022 -0.7744809,-0.08479 z m 1.9702805,0.03901 C 9.9178345,10.961836 9.9236577,10.952243 11.236722,9.0887896 11.440175,8.800058 11.606636,8.5473853 11.606636,8.5272958 c 0,-0.02009 -0.34766,-0.5247061 -0.772575,-1.1213697 -0.424914,-0.5966639 -0.772572,-1.118195 -0.772572,-1.1589589 0,-0.040764 0.03139,-0.1025298 0.06977,-0.137257 0.06025,-0.05453 0.17894,-0.06314 0.870352,-0.06314 l 0.800582,0 0.09772,0.1049174 c 0.05374,0.057705 0.230901,0.3149306 0.393681,0.5716134 l 0.29596,0.4666963 0.240405,-0.3522412 c 0.267334,-0.3916899 0.383508,-0.558113 0.486734,-0.6972571 l 0.06953,-0.093729 0.792507,0 c 0.739339,0 0.797057,0.00502 0.860348,0.074966 0.03994,0.044132 0.06053,0.1108236 0.05006,0.1621451 -0.0098,0.047948 -0.343385,0.5421376 -0.741331,1.0981989 -0.397952,0.5560622 -0.735084,1.0302829 -0.749184,1.0538234 -0.0141,0.02354 0.06358,0.1694715 0.172622,0.3242896 1.175683,1.669235 1.478877,2.118391 1.478877,2.190832 0,0.162189 -0.05821,0.171975 -0.958596,0.16113 l -0.85361,-0.01028 -0.373256,-0.5532 c -0.205292,-0.30426 -0.395777,-0.5868447 -0.423301,-0.6279663 -0.046,-0.068705 -0.0846,-0.023084 -0.47618,0.5627383 l -0.426132,0.637504 -0.831149,0 c -0.595583,0 -0.844127,-0.01297 -0.876935,-0.04578 z m 10.758792,0 c -0.03491,-0.03491 -0.04578,-0.835482 -0.04578,-3.3705164 0,-3.1724954 0.0032,-3.327625 0.06977,-3.3878746 0.05951,-0.053861 0.171334,-0.06314 0.760872,-0.06314 0.670915,0 0.692836,0.00248 0.750492,0.084792 0.05263,0.07514 0.05939,0.4563718 0.05939,3.3488642 0,2.8924928 -0.0068,3.2737248 -0.05939,3.3488638 -0.05778,0.0825 -0.07878,0.08479 -0.774481,0.08479 -0.505311,0 -0.72852,-0.01343 -0.760871,-0.04578 z M 8.0606855,5.6184118 c -0.047148,-0.067315 -0.059392,-0.19925 -0.059392,-0.6400907 0,-0.7776558 -0.060707,-0.724883 0.8338723,-0.724883 0.5053116,0 0.7285179,0.013431 0.7608711,0.045782 0.064259,0.064258 0.064259,1.2939442 0,1.3582019 -0.032353,0.032352 -0.2555595,0.045782 -0.7608711,0.045782 -0.6957042,0 -0.7167001,-0.00228 -0.7744809,-0.084792 z"
     id="path4149"
     inkscape:connector-curvature="0" />
</svg>
