<?xml version="1.0" encoding="UTF-8" standalone="no"?>
<svg
   xmlns:dc="http://purl.org/dc/elements/1.1/"
   xmlns:cc="http://creativecommons.org/ns#"
   xmlns:rdf="http://www.w3.org/1999/02/22-rdf-syntax-ns#"
   xmlns:svg="http://www.w3.org/2000/svg"
   xmlns="http://www.w3.org/2000/svg"
   xmlns:sodipodi="http://sodipodi.sourceforge.net/DTD/sodipodi-0.dtd"
   xmlns:inkscape="http://www.inkscape.org/namespaces/inkscape"
   width="24"
   height="24"
   viewBox="0 0 24 24"
   id="svg2"
   version="1.1"
   inkscape:version="0.91 r13725"
   sodipodi:docname="icon_link_w.svg">
  <metadata
     id="metadata12">
    <rdf:RDF>
      <cc:Work
         rdf:about="">
        <dc:format>image/svg+xml</dc:format>
        <dc:type
           rdf:resource="http://purl.org/dc/dcmitype/StillImage" />
        <dc:title></dc:title>
      </cc:Work>
    </rdf:RDF>
  </metadata>
  <defs
     id="defs10" />
  <sodipodi:namedview
     pagecolor="#ffffff"
     bordercolor="#666666"
     borderopacity="1"
     objecttolerance="10"
     gridtolerance="10"
     guidetolerance="10"
     inkscape:pageopacity="0"
     inkscape:pageshadow="2"
     inkscape:window-width="1920"
     inkscape:window-height="1017"
     id="namedview8"
     showgrid="false"
     inkscape:zoom="9.8333333"
     inkscape:cx="12"
     inkscape:cy="12"
     inkscape:window-x="-8"
     inkscape:window-y="-8"
     inkscape:window-maximized="1"
     inkscape:current-layer="svg2" />
  <path
     fill="none"
     d="M0 0h24v24H0V0z"
     id="path4" />
  <path
     d="M17 7h-3c-.55 0-1 .45-1 1s.45 1 1 1h3c1.65 0 3 1.35 3 3s-1.35 3-3 3h-3c-.55 0-1 .45-1 1s.45 1 1 1h3c2.76 0 5-2.24 5-5s-2.24-5-5-5zm-9 5c0 .55.45 1 1 1h6c.55 0 1-.45 1-1s-.45-1-1-1H9c-.55 0-1 .45-1 1zm2 3H7c-1.65 0-3-1.35-3-3s1.35-3 3-3h3c.55 0 1-.45 1-1s-.45-1-1-1H7c-2.76 0-5 2.24-5 5s2.24 5 5 5h3c.55 0 1-.45 1-1s-.45-1-1-1z"
     id="path6"
     style="fill:#ffffff;fill-opacity:1" />
</svg>
